<?xml version="1.0" standalone="no"?>
<!DOCTYPE svg PUBLIC "-//W3C//DTD SVG 20010904//EN"
 "http://www.w3.org/TR/2001/REC-SVG-20010904/DTD/svg10.dtd">
<svg version="1.0" xmlns="http://www.w3.org/2000/svg"
 width="1280.000000pt" height="1174.000000pt" viewBox="0 0 1280.000000 1174.000000"
 preserveAspectRatio="xMidYMid meet">
<metadata>
Created by potrace 1.15, written by Peter Selinger 2001-2017
</metadata>
<g transform="translate(0.000000,1174.000000) scale(0.100000,-0.100000)"
fill="#bbb" stroke="none">
<path d="M0 5870 l0 -5870 6400 0 6400 0 0 5870 0 5870 -2782 0 -2783 0 -40
-63 c-50 -79 -172 -207 -250 -262 -184 -131 -357 -186 -590 -188 -102 -1 -149
4 -220 21 -255 62 -471 211 -610 420 l-48 72 -2738 0 -2739 0 0 -5870z m1178
5220 c18 -11 41 -34 52 -52 19 -31 20 -51 20 -426 0 -435 -1 -440 -64 -485
-30 -21 -41 -22 -278 -25 -233 -3 -249 -2 -287 18 -27 13 -48 34 -61 60 -19
37 -20 58 -20 427 0 433 0 433 70 481 32 21 40 22 284 22 233 0 253 -2 284
-20z m1602 5 c16 -8 39 -29 52 -47 l23 -33 3 -393 c3 -383 2 -395 -18 -437
-16 -32 -33 -49 -64 -64 -39 -19 -60 -21 -277 -21 -262 0 -283 5 -326 69 -23
34 -23 35 -23 435 0 382 1 403 20 434 11 18 34 41 52 52 31 18 51 20 281 20
200 0 254 -3 277 -15z m1610 -8 c73 -48 71 -40 71 -483 -1 -437 0 -430 -64
-478 -27 -20 -40 -21 -287 -21 -246 0 -260 1 -286 21 -15 11 -37 33 -48 48
-20 26 -21 42 -24 414 -3 438 -1 451 66 497 37 25 37 25 288 25 244 0 252 -1
284 -23z m1608 3 c18 -11 41 -34 52 -52 19 -31 20 -51 20 -426 0 -435 -1 -440
-64 -485 -30 -21 -38 -22 -291 -22 -382 0 -355 -38 -355 502 0 433 0 434 69
480 33 22 41 23 285 23 233 0 253 -2 284 -20z m1614 -5 c67 -46 69 -59 66
-497 -3 -372 -4 -388 -24 -414 -51 -69 -51 -69 -322 -72 -277 -3 -295 1 -340
67 l-23 35 3 412 c3 396 4 413 23 434 52 59 59 60 330 60 250 0 250 0 287 -25z
m1604 3 c66 -45 65 -36 67 -475 2 -382 1 -399 -18 -432 -11 -19 -33 -43 -48
-55 -27 -20 -40 -21 -287 -21 -246 0 -260 1 -286 21 -15 11 -37 33 -48 48 -20
26 -21 42 -24 414 -3 437 -1 451 66 497 37 25 37 25 291 25 246 0 256 -1 287
-22z m1605 -1 c69 -46 69 -47 69 -480 0 -430 -1 -435 -64 -480 -30 -21 -38
-22 -291 -22 -382 0 -355 -38 -355 502 0 433 0 434 69 480 33 22 41 23 286 23
245 0 253 -1 286 -23z m1605 3 c18 -12 42 -40 54 -64 20 -42 21 -55 18 -434
-3 -377 -4 -392 -24 -418 -51 -69 -51 -69 -322 -72 -277 -3 -295 1 -339 67
-23 34 -23 35 -23 433 0 427 0 428 52 474 12 12 30 24 38 27 8 3 127 6 264 6
233 1 251 0 282 -19z m-160 -1191 c106 -19 193 -89 230 -185 19 -48 19 -145
19 -3819 l0 -3770 -24 -49 c-31 -63 -90 -122 -150 -150 l-46 -21 -5895 0
-5895 0 -46 21 c-60 28 -119 87 -150 150 l-24 49 0 3770 c0 3674 0 3771 19
3819 35 92 117 161 216 182 75 17 11656 19 11746 3z m-11100 -8266 c63 -45 64
-50 64 -480 0 -433 0 -433 -70 -481 -32 -21 -40 -22 -285 -22 -245 0 -253 1
-286 23 -70 46 -70 45 -67 494 3 388 4 402 24 430 44 60 63 64 339 61 240 -3
251 -4 281 -25z m1594 6 c76 -43 75 -34 75 -484 0 -541 26 -505 -358 -505
-237 0 -245 1 -277 23 -18 12 -43 35 -54 50 -20 28 -21 37 -19 433 3 398 3
406 24 436 47 66 58 68 328 68 228 0 246 -1 281 -21z m1600 3 c19 -9 45 -32
57 -51 23 -34 23 -35 23 -435 0 -382 -1 -403 -20 -434 -11 -18 -34 -41 -52
-52 -31 -18 -51 -20 -278 -20 -278 0 -296 4 -337 76 -22 39 -23 44 -23 429 0
536 -22 505 355 505 209 0 245 -2 275 -18z m1626 -9 c63 -45 64 -50 64 -480 0
-433 0 -433 -70 -481 -32 -21 -40 -22 -284 -22 -233 0 -253 2 -284 20 -18 11
-41 34 -52 52 -20 32 -20 48 -18 440 3 393 4 407 24 435 44 60 63 64 339 61
240 -3 251 -4 281 -25z m1594 5 c75 -51 71 -29 73 -479 2 -544 30 -503 -343
-507 -253 -3 -256 -3 -289 20 -19 13 -44 36 -55 51 -21 28 -21 37 -19 435 2
452 -1 429 73 480 32 21 40 22 280 22 240 0 248 -1 280 -22z m1600 4 c19 -9
45 -32 57 -51 23 -34 23 -35 23 -435 0 -382 -1 -403 -20 -434 -11 -18 -34 -41
-52 -52 -31 -18 -51 -20 -278 -20 -278 0 -296 4 -337 76 -22 38 -23 44 -23
424 0 540 -21 510 355 510 209 0 245 -2 275 -18z m1610 -1 c19 -10 45 -36 57
-57 22 -39 23 -44 23 -427 0 -430 -1 -435 -64 -480 -30 -21 -40 -22 -286 -25
-241 -2 -257 -1 -288 18 -18 11 -41 34 -52 52 -19 31 -20 52 -20 434 0 400 0
401 23 435 43 65 63 69 332 69 215 0 244 -2 275 -19z m1610 -3 c74 -51 71 -28
73 -480 2 -398 2 -407 -19 -435 -11 -15 -36 -38 -54 -51 -32 -21 -40 -22 -280
-22 -240 0 -248 1 -280 23 -18 12 -43 35 -54 50 -21 28 -21 37 -19 435 2 452
-1 429 73 480 32 21 40 22 280 22 240 0 248 -1 280 -22z"/>
</g>
</svg>
